<svg width="14" height="14" viewBox="0 0 14 14" fill="none" xmlns="http://www.w3.org/2000/svg">
<g id="Icon" clip-path="url(#clip0_1302_5744)">
<path id="Vector" d="M7 14C10.866 14 14 10.866 14 7C14 3.13401 10.866 0 7 0C3.13401 0 0 3.13401 0 7C0 10.866 3.13401 14 7 14Z" fill="#C16EFA"/>
<path id="Vector_2" d="M10.1357 4.42269L6.22267 8.33569L3.74467 5.85769C3.47167 5.58469 3.03067 5.58469 2.75767 5.85769C2.48467 6.13069 2.48467 6.57169 2.75767 6.84469L5.72567 9.81269C5.99867 10.0857 6.43967 10.0857 6.71267 9.81269L11.1227 5.40269C11.3957 5.12969 11.3957 4.68869 11.1227 4.41569C10.8497 4.14269 10.4087 4.14269 10.1357 4.41569V4.42269Z" fill="white"/>
</g>
<defs>
<clipPath id="clip0_1302_5744">
<rect width="14" height="14" fill="white"/>
</clipPath>
</defs>
</svg>
