<svg width="38" height="38" viewBox="0 0 38 38" fill="none" xmlns="http://www.w3.org/2000/svg">
<rect x="0.5" y="0.5" width="37" height="37" rx="18.5" fill="#191E28" stroke="#E5E8EB"/>
<g clip-path="url(#clip0_1227_79)">
<path d="M23.7344 8.46173C23.7344 8.44602 23.7344 8.42717 23.7344 8.41147C23.7344 8.3989 23.7344 8.38634 23.7344 8.37378C23.7313 8.3455 23.722 8.32038 23.7095 8.29211C23.7095 8.29211 23.7095 8.28896 23.7095 8.28582C23.7095 8.28582 23.7033 8.27326 23.7002 8.27012C23.6877 8.24813 23.6784 8.22928 23.6628 8.21044L22.1221 6.43883C22.0629 6.36972 21.9789 6.33203 21.8886 6.33203H16.1114C16.0211 6.33203 15.9371 6.36972 15.8779 6.43883L14.3403 8.21044C14.3247 8.22928 14.3123 8.24813 14.3029 8.27012C14.2998 8.2764 14.2936 8.27954 14.2936 8.28582V8.28896C14.2811 8.31409 14.2749 8.34236 14.2687 8.37063C14.2687 8.3832 14.2687 8.39576 14.2687 8.40519C14.2687 8.42403 14.2687 8.43974 14.2687 8.45859C14.2687 8.47429 14.278 8.48686 14.2811 8.50256C14.2842 8.51513 14.2874 8.53083 14.2936 8.5434C14.306 8.57167 14.3247 8.5968 14.3434 8.62193L18.7665 13.7797C18.8257 13.8488 18.9128 13.8896 19.0031 13.8896C19.0934 13.8896 19.1805 13.8488 19.2397 13.7797L23.6628 8.62193C23.6815 8.59994 23.7002 8.57167 23.7126 8.5434C23.7189 8.53083 23.7189 8.51827 23.722 8.5057C23.7282 8.49 23.7344 8.47429 23.7344 8.45859V8.46173Z" fill="#C16EFA"/>
<path d="M23.9959 13.9278C24.3476 13.5634 24.5655 13.0671 24.5655 12.5205C24.5655 11.4086 23.6691 10.5039 22.5672 10.5039C21.7952 10.5039 21.1229 10.9499 20.7929 11.6002C20.4599 10.9499 19.7906 10.5039 19.0187 10.5039C18.2467 10.5039 17.5744 10.9499 17.2444 11.6002C16.9114 10.9499 16.2421 10.5039 15.4702 10.5039C14.3683 10.5039 13.4718 11.4086 13.4718 12.5205C13.4718 13.0702 13.6928 13.5697 14.0446 13.9309C11.1529 15.9726 9.5 18.9253 9.5 22.079C9.5 27.3656 13.7613 31.6658 19 31.6658C24.2387 31.6658 28.5 27.3656 28.5 22.079C28.5 18.7431 26.7849 15.6711 23.9959 13.9278ZM19 28.0441C15.741 28.0441 13.0921 25.3678 13.0921 22.0822C13.0921 18.7965 15.7441 16.1203 19 16.1203C22.2559 16.1203 24.9079 18.7965 24.9079 22.0822C24.9079 25.3678 22.2559 28.0441 19 28.0441Z" fill="#EDD5FF"/>
</g>
<defs>
<clipPath id="clip0_1227_79">
<rect width="19" height="25.3333" fill="white" transform="translate(9.5 6.33203)"/>
</clipPath>
</defs>
</svg>
