<svg width="12" height="12" viewBox="0 0 12 12" fill="none" xmlns="http://www.w3.org/2000/svg">
<g id="_&#235;&#160;&#136;&#236;&#157;&#180;&#236;&#150;&#180;_1" clip-path="url(#clip0_1260_5337)">
<path id="Vector" d="M7.75 7.99609C9.82 7.99609 11.5 6.31609 11.5 4.24609C11.5 2.17609 9.82 0.496094 7.75 0.496094C6.395 0.496094 5.21 1.21609 4.55 2.29609C4.215 2.16609 3.85 2.09109 3.47 2.09109C1.83 2.09109 0.5 3.42109 0.5 5.05609C0.5 6.69109 1.83 8.02609 3.47 8.02609C3.61 8.02609 3.75 8.01109 3.885 7.99109L5.23 6.64609C5.425 6.45109 5.74 6.45109 5.935 6.64609C6.125 6.83609 6.13 7.14609 5.945 7.34109L4.625 8.65609C4.48 8.8011 4.44 9.0161 4.515 9.20109C4.59 9.3861 4.775 9.5111 4.975 9.5111H6.27L5.1 10.6411C4.9 10.8311 4.895 11.1511 5.085 11.3461C5.185 11.4461 5.315 11.5011 5.445 11.5011C5.575 11.5011 5.695 11.4561 5.79 11.3611L7.85 9.37109C7.995 9.23109 8.045 9.0111 7.965 8.82609C7.89 8.6361 7.705 8.5111 7.5 8.5111H6.175L6.815 7.87109C7.11 7.94609 7.415 7.99609 7.735 7.99609H7.75Z" fill="#191E28"/>
</g>
<defs>
<clipPath id="clip0_1260_5337">
<rect width="11" height="11.005" fill="white" transform="translate(0.5 0.496094)"/>
</clipPath>
</defs>
</svg>
