<svg width="12" height="12" viewBox="0 0 12 12" fill="none" xmlns="http://www.w3.org/2000/svg">
<g id="Icon">
<path id="Union" fill-rule="evenodd" clip-rule="evenodd" d="M10.4304 3.1874C9.86573 3.49903 9.17716 3.41981 8.70758 3.03756L3.79543 5.74837C3.8291 5.92407 3.82752 6.10249 3.79324 6.27452L8.70174 8.9833C9.17144 8.59693 9.86338 8.51576 10.4304 8.82868C11.1479 9.22461 11.3937 10.1015 10.9795 10.7872C10.5653 11.473 9.64786 11.708 8.93043 11.312C8.36554 11.0003 8.09304 10.3904 8.20487 9.81039L3.29175 7.09905C3.22373 7.15423 3.14959 7.20436 3.06959 7.24852C2.35215 7.64444 1.43476 7.40948 1.02055 6.72372C0.606335 6.03796 0.852147 5.16108 1.56959 4.76516C2.13711 4.45197 2.82976 4.53355 3.29948 4.92077L8.20629 2.21292C8.09078 1.63075 8.36319 1.01708 8.93043 0.704046C9.64787 0.308123 10.5653 0.543081 10.9795 1.22884C11.3937 1.9146 11.1479 2.79148 10.4304 3.1874Z" fill="#8E24CC"/>
</g>
</svg>
